<svg xmlns="http://www.w3.org/2000/svg" width="149.983" height="149.984" viewBox="0 0 149.983 149.984">
  <g id="correct" transform="translate(-0.007 0)">
    <path id="Path_8" data-name="Path 8" d="M143.438,44.289l-18.385-8.178-8.185-18.392L96.86,19.809,80.583,8,64.3,19.809l-20-2.089L36.118,36.1,17.726,44.289,19.816,64.3,8.012,80.575l11.8,16.287-2.091,20,18.385,8.178L44.3,143.43,64.3,141.341l16.278,11.8,16.287-11.8,20,2.089,8.178-18.385,18.392-8.185-2.091-20.008,11.806-16.278L141.348,64.288ZM66.068,109.6,45.53,89.065l6.846-6.821L66.068,95.911l41.05-41.05,6.846,6.845Zm0,0" transform="translate(-5.584 -5.583)" fill="#fff"/>
    <g id="Group_1" data-name="Group 1" transform="translate(0.008 0)">
      <path id="Path_9" data-name="Path 9" d="M149.529,73.572,138.265,58.033l2-19.083a2.42,2.42,0,0,0-1.423-2.463l-17.532-7.8-7.8-17.533a2.434,2.434,0,0,0-2.463-1.424L91.955,11.723,76.418.461a2.418,2.418,0,0,0-2.84,0L58.041,11.723,38.955,9.728a2.452,2.452,0,0,0-2.463,1.422l-7.8,17.533-17.533,7.8a2.418,2.418,0,0,0-1.422,2.46l1.995,19.085L.468,73.572a2.418,2.418,0,0,0,0,2.84L11.731,91.948,9.736,111.035a2.419,2.419,0,0,0,1.422,2.463l17.533,7.8,7.8,17.533a2.446,2.446,0,0,0,2.463,1.424l19.085-2,15.538,11.264a2.418,2.418,0,0,0,2.84,0L91.955,138.26l19.086,2a2.433,2.433,0,0,0,2.463-1.422l7.8-17.533,17.532-7.8a2.421,2.421,0,0,0,1.423-2.46l-2-19.086,11.264-15.537a2.418,2.418,0,0,0,0-2.842ZM133.805,89.859a2.413,2.413,0,0,0-.448,1.671l1.906,18.258-16.776,7.468a2.4,2.4,0,0,0-1.23,1.226L109.8,135.259,91.532,133.35a2.413,2.413,0,0,0-1.669.45L75,144.575,60.131,133.8a2.392,2.392,0,0,0-1.417-.462,1.576,1.576,0,0,0-.242.012l-18.264,1.909-7.463-16.776a2.417,2.417,0,0,0-1.228-1.23l-16.786-7.465L16.637,91.53a2.425,2.425,0,0,0-.448-1.671L5.415,74.991,16.19,60.124a2.425,2.425,0,0,0,.448-1.671l-1.906-18.26,16.776-7.467A2.4,2.4,0,0,0,32.735,31.5L40.2,14.724l18.264,1.909a2.441,2.441,0,0,0,1.669-.45L75,5.408,89.866,16.182a2.431,2.431,0,0,0,1.669.45L109.8,14.724,117.261,31.5a2.417,2.417,0,0,0,1.23,1.228l16.776,7.465-1.906,18.26a2.413,2.413,0,0,0,.448,1.671l10.773,14.867Zm0,0" transform="translate(-0.008 0)" fill="#fff"/>
      <path id="Path_10" data-name="Path 10" d="M189.786,155.674a2.418,2.418,0,0,0-3.421,0l-39.34,39.34-11.982-11.959a2.419,2.419,0,0,0-3.416,0l-6.858,6.816a2.418,2.418,0,0,0,0,3.425l20.538,20.538a2.42,2.42,0,0,0,3.421,0l47.9-47.9a2.42,2.42,0,0,0,0-3.421Zm-42.76,53.032L129.91,191.591l3.421-3.412,11.986,11.962a2.42,2.42,0,0,0,3.418,0l39.34-39.336,3.425,3.425Zm0,0" transform="translate(-86.548 -108.107)" fill="#1e81ce"/>
    </g>
  </g>
</svg>
