<svg xmlns="http://www.w3.org/2000/svg" width="184" height="184" viewBox="0 0 184 184">
  <g id="verified" transform="translate(7 7)">
    <path id="Path_6" data-name="Path 6" d="M85,170c-8.756,0-15.021-6.585-20.04-11.853a30.6,30.6,0,0,0-7.546-6.585,32.1,32.1,0,0,0-10.678-.819c-7.546,0-16.053.285-22.033-5.659s-5.624-14.451-5.482-22a31.718,31.718,0,0,0-.819-10.678,30.6,30.6,0,0,0-6.585-7.546C6.692,100.021,0,93.756,0,85S6.692,69.979,11.817,64.96A30.61,30.61,0,0,0,18.4,57.414a31.735,31.735,0,0,0,.819-10.678c0-7.511-.285-16.053,5.659-22s14.487-5.8,22.033-5.659a31.633,31.633,0,0,0,10.678-.819,30.668,30.668,0,0,0,7.546-6.585C69.979,6.692,76.244,0,85,0s15.021,6.692,20.04,11.853a30.6,30.6,0,0,0,7.546,6.585,31.735,31.735,0,0,0,10.678.819c7.546,0,16.053-.285,22.033,5.659s5.8,14.487,5.659,22a31.718,31.718,0,0,0,.819,10.678,30.6,30.6,0,0,0,6.585,7.546C163.308,69.979,170,76.244,170,85s-6.692,15.021-11.817,20.04a30.6,30.6,0,0,0-6.585,7.546,31.735,31.735,0,0,0-.819,10.678c0,7.511.285,16.053-5.659,22s-14.487,5.8-22.033,5.659a31.549,31.549,0,0,0-10.678.819,30.668,30.668,0,0,0-7.546,6.585C100.021,163.308,93.756,170,85,170ZM50.189,136.007a33.243,33.243,0,0,1,12.85,1.958,39.167,39.167,0,0,1,12.529,10c3.1,3.239,7.119,7.3,9.4,7.3s6.3-4.058,9.4-7.3a39.17,39.17,0,0,1,12.529-10,40.654,40.654,0,0,1,16.409-1.922c4.129,0,9.824,0,11.355-1.353s1.424-7.119,1.353-11.355a40.654,40.654,0,0,1,1.922-16.409,39.167,39.167,0,0,1,10-12.529c3.239-3.1,7.3-7.119,7.3-9.4s-4.058-6.3-7.3-9.4a39.166,39.166,0,0,1-10-12.529,40.6,40.6,0,0,1-1.922-16.409c0-4.129,0-9.824-1.353-11.355s-7.119-1.459-11.355-1.353a40.725,40.725,0,0,1-16.409-1.922,39.167,39.167,0,0,1-12.529-10c-3.1-3.239-7.119-7.3-9.4-7.3s-6.3,4.058-9.4,7.3a39.17,39.17,0,0,1-12.529,10,40.726,40.726,0,0,1-16.409,1.922c-4.129,0-9.824,0-11.355,1.353s-1.424,7.119-1.353,11.355A40.654,40.654,0,0,1,32,63.074,39.167,39.167,0,0,1,22,75.6c-3.239,3.1-7.3,7.119-7.3,9.4s4.058,6.3,7.3,9.4a39.167,39.167,0,0,1,10,12.529,40.6,40.6,0,0,1,1.922,16.409c0,4.129,0,9.824,1.353,11.355s7.119,1.424,11.355,1.353Z" fill="#6cabf3" stroke="#6cabf3" stroke-width="14"/>
    <path id="Path_7" data-name="Path 7" d="M183.984,237.775a7.338,7.338,0,0,1-4.592-1.6l-17.8-14.238a7.343,7.343,0,1,1,9.184-11.461l12.672,10.145,27.372-27.372a7.349,7.349,0,0,1,10.394,10.394l-32.035,32.035A7.34,7.34,0,0,1,183.984,237.775Z" transform="translate(-106.103 -127.645)" fill="#6cabf3" stroke="#6cabf3" stroke-width="14"/>
  </g>
</svg>
